#!OML:ASF E:\Steps\Project 1\Capture day 1\Session 2\Subject.ASF
:FULLY-SPECIFIED
:DEGREES
188
root 2.03293 17.4829 18.5714 -150.582 -12.5026 174.365
lowerback -19.3266 -4.96484 -13.1565
upperback -0.368954 -3.85711 -1.91104
thorax 11.2118 -2.63159 4.13875
lowerneck -2.91444 -3.27767 -1.97625
upperneck 22.5562 -7.85193 6.7247
head 7.75387 -4.04975 1.85368
rclavicle 3.49861e-014 1.90833e-014
rhumerus -49.4981 -25.3879 -68.2555
rradius 29.8569
rwrist -1.038
rhand -7.77261 -53.3721
rfingers 7.12502
rthumb 18.1276 -82.5474
lclavicle 3.49861e-014 1.90833e-014
lhumerus -27.8618 -1.12792 72.1474
lradius 30.0174
lwrist 2.37837
lhand -23.2977 -12.7715
lfingers 7.12502
lthumb 3.15559 17.1849
rfemur -32.6392 2.66886 6.93999
rtibia 11.8584
rfoot -13.5592 -19.0357
rtoes -10.6151
lfemur -46.6749 -19.7502 -6.89887
ltibia 59.1099
lfoot -36.2625 -2.5349
ltoes -29.6701
189
root 2.08216 17.4653 18.5505 -150.503 -12.1906 174.122
lowerback -19.0495 -4.94536 -13.029
upperback -0.30029 -3.88908 -1.95528
thorax 11.1289 -2.63534 4.02243
lowerneck -2.77726 -3.16115 -1.70281
upperneck 22.1421 -7.49675 6.25454
head 7.54594 -3.88544 1.69176
rclavicle -3.26007e-014 -7.63333e-014
rhumerus -49.1175 -25.0352 -68.5096
rradius 30.083
rwrist -1.12984
rhand -7.88057 -53.2873
rfingers 7.12502
rthumb 18.0237 -82.4722
lclavicle -3.26007e-014 -7.63333e-014
lhumerus -28.0314 -1.19334 72.2277
lradius 30.0121
lwrist 2.52337
lhand -23.2082 -13.0288
lfingers 7.12502
lthumb 3.24203 16.9263
rfemur -32.8605 2.5226 6.92631
rtibia 12.1871
rfoot -13.967 -18.7484
rtoes -11.3051
lfemur -46.6074 -19.895 -6.93537
ltibia 59.1958
lfoot -36.2682 -2.17496
ltoes -31.5123
190
root 2.13039 17.4522 18.5307 -150.506 -11.8597 173.845
lowerback -18.7455 -4.93149 -12.9832
upperback -0.183919 -3.90755 -1.99974
thorax 11.0893 -2.63985 3.95442
lowerneck -2.94303 -3.08516 -1.40765
upperneck 22.2879 -7.29227 5.65578
head 7.58258 -3.80233 1.45815
rclavicle -2.38542e-015 7.15625e-015
rhumerus -48.8058 -24.7183 -68.7129
rradius 30.4299
rwrist -1.25217
rhand -8.22726 -53.2559
rfingers 7.12502
rthumb 17.6902 -82.4712
lclavicle -2.38542e-015 7.15625e-015
lhumerus -28.0986 -1.35091 72.3414
lradius 29.9211
lwrist 2.63257
lhand -23.1539 -13.2411
lfingers 7.12502
lthumb 3.29445 16.7132
rfemur -33.0382 2.45698 6.84441
rtibia 12.5492
rfoot -14.3467 -18.5876
rtoes -12.4808
lfemur -46.3982 -20.0237 -7.05271
ltibia 59.1493
lfoot -36.0066 -2.35596
ltoes -31.3128
191
root 2.17789 17.4438 18.5127 -150.445 -11.5288 173.58
lowerback -18.4657 -5.01078 -12.9983
upperback -0.122363 -4.0455 -1.9339
thorax 11.034 -2.70333 4.00842
lowerneck -2.99095 -2.83733 -1.53255
upperneck 22.3214 -6.88238 5.45832
head 7.5809 -3.62949 1.44585
rclavicle -2.8625e-014 -9.46215e-014
rhumerus -48.421 -24.1744 -68.848
rradius 30.8022
rwrist -1.56361
rhand -8.55541 -53.3495
rfingers 7.12502
rthumb 17.3744 -82.5929
lclavicle -2.8625e-014 -9.46215e-014
lhumerus -28.1546 -0.979842 72.4903
lradius 29.7198
lwrist 2.3572
lhand -22.9292 -13.2606
lfingers 7.12502
lthumb 3.51143 16.6902
rfemur -33.2678 2.43861 6.71808
rtibia 12.8526
rfoot -14.796 -18.3939
rtoes -12.5104
lfemur -46.3051 -20.1132 -7.13296
ltibia 59.1329
lfoot -35.7028 -2.56568
ltoes -31.1802
192
root 2.22288 17.4345 18.4947 -150.305 -11.2276 173.343
lowerback -18.1954 -5.05029 -12.8397
upperback -0.145953 -4.17673 -1.95428
thorax 10.8632 -2.74835 3.87737
lowerneck -2.76536 -2.61039 -1.55245
upperneck 21.9838 -6.48481 5.39363
head 7.41021 -3.44763 1.46806
rclavicle 3.57812e-015 -7.55382e-014
rhumerus -48.148 -23.872 -68.9366
rradius 31.0353
rwrist -1.82416
rhand -8.70899 -53.386
rfingers 7.12502
rthumb 17.2265 -82.6425
lclavicle 3.57812e-015 -7.55382e-014
lhumerus -28.3101 -0.684834 72.5136
lradius 29.5423
lwrist 1.98954
lhand -22.7161 -12.9073
lfingers 7.12502
lthumb 3.71731 17.0401
rfemur -33.559 2.48716 6.6048
rtibia 13.2088
rfoot -15.4021 -18.1943
rtoes -11.6505
lfemur -46.3729 -20.2313 -7.12197
ltibia 59.2883
lfoot -35.4535 -2.73239
ltoes -31.2022
193
root 2.26431 17.4243 18.4769 -150.137 -10.9325 173.183
lowerback -18.0555 -5.03195 -12.5833
upperback -0.168697 -4.22853 -1.99812
thorax 10.7431 -2.75307 3.6829
lowerneck -2.51548 -2.53559 -1.41858
upperneck 21.7056 -6.29835 5.16132
head 7.25541 -3.36899 1.39283
rclavicle 5.56597e-015 -7.95139e-014
rhumerus -48.0275 -23.6628 -69.0444
rradius 31.3734
rwrist -2.04524
rhand -8.79741 -53.3233
rfingers 7.12502
rthumb 17.1414 -82.5872
lclavicle 5.56597e-015 -7.95139e-014
lhumerus -28.6344 -1.06854 72.6246
lradius 29.5767
lwrist 1.81756
lhand -22.5577 -12.6457
lfingers 7.12502
lthumb 3.87026 17.2989
rfemur -33.8883 2.45455 6.61459
rtibia 13.5212
rfoot -15.7536 -17.9769
rtoes -11.7543
lfemur -46.5036 -20.3415 -7.0084
ltibia 59.4742
lfoot -35.2803 -2.90345
ltoes -31.6031
194
root 2.30716 17.4158 18.4564 -150.108 -10.6568 173.056
lowerback -18.1586 -5.05809 -12.47
upperback 0.0740056 -4.23381 -1.93142
thorax 11.08 -2.76423 3.6728
lowerneck -2.6568 -2.5211 -1.6327
upperneck 21.6597 -6.22865 5.15014
head 7.26768 -3.34173 1.42831
rclavicle -6.75868e-015 -1.19271e-014
rhumerus -47.4798 -23.4635 -69.2514
rradius 31.7108
rwrist -2.39693
rhand -8.84284 -54.1158
rfingers 7.12502
rthumb 17.0977 -83.3835
lclavicle -6.75868e-015 -1.19271e-014
lhumerus -28.489 -1.29776 72.8652
lradius 29.3458
lwrist 1.26086
lhand -22.3464 -13.1568
lfingers 7.12502
lthumb 4.07426 16.784
rfemur -34.022 2.43713 6.67289
rtibia 13.6778
rfoot -15.7673 -17.7989
rtoes -12.2571
lfemur -46.4471 -20.4076 -6.94989
ltibia 59.5206
lfoot -35.0647 -3.05074
ltoes -31.9722
195
root 2.35283 17.4108 18.4358 -150.16 -10.5262 172.937
lowerback -18.5667 -5.14062 -12.3493
upperback 0.629604 -4.22741 -1.87381
thorax 11.9537 -2.7934 3.61267
lowerneck -3.26006 -2.58956 -1.98192
upperneck 21.7314 -6.30965 5.42723
head 7.42009 -3.35466 1.55821
rclavicle -9.54166e-015 -4.77083e-015
rhumerus -46.3977 -23.6269 -69.6117
rradius 31.8285
rwrist -2.89948
rhand -8.44532 -55.2379
rfingers 7.12502
rthumb 17.4803 -84.4719
lclavicle -9.54166e-015 -4.77083e-015
lhumerus -27.6614 -1.13396 72.9968
lradius 28.813
lwrist 0.29637
lhand -22.189 -13.7887
lfingers 7.12502
lthumb 4.2263 16.1491
rfemur -34.1048 2.48413 6.72622
rtibia 13.9593
rfoot -15.8786 -17.6985
rtoes -12.0581
lfemur -46.3849 -20.4864 -6.89664
ltibia 59.738
lfoot -34.8701 -2.91181
ltoes -33.2459
196
root 2.39346 17.4082 18.4196 -150.047 -10.4405 172.76
lowerback -18.1994 -5.19586 -12.0762
upperback 0.543782 -4.42434 -1.89754
thorax 11.6511 -2.85524 3.40506
lowerneck -3.24666 -2.4216 -1.90774
upperneck 21.9201 -6.11687 5.34316
head 7.46688 -3.27439 1.53125
rclavicle 3.97569e-016 3.97569e-015
rhumerus -46.3655 -23.372 -69.672
rradius 32.0416
rwrist -3.5788
rhand -7.24189 -55.3619
rfingers 7.12502
rthumb 18.6382 -84.489
lclavicle 3.97569e-016 3.97569e-015
lhumerus -27.913 -1.10777 73.0026
lradius 28.5698
lwrist -0.547385
lhand -22.0507 -14.2035
lfingers 7.12502
lthumb 4.3598 15.7316
rfemur -34.4383 2.2045 6.78172
rtibia 14.4507
rfoot -16.085 -17.3205
rtoes -11.9684
lfemur -46.6172 -20.5993 -6.8455
ltibia 60.0728
lfoot -34.5417 -2.81519
ltoes -36.2727
197
root 2.42847 17.4087 18.4043 -149.876 -10.1985 172.515
lowerback -18.1307 -5.22719 -11.8525
upperback 0.522746 -4.52503 -1.99858
thorax 11.5747 -2.88545 3.14385
lowerneck -2.40702 -2.10974 -1.47173
upperneck 21.064 -5.54431 5.06752
head 6.99515 -3.0019 1.43553
rclavicle -3.22031e-014 -1.98785e-014
rhumerus -46.3124 -23.3418 -69.7143
rradius 32.219
rwrist -3.8983
rhand -5.70255 -54.953
rfingers 7.12502
rthumb 20.1183 -83.9313
lclavicle -3.22031e-014 -1.98785e-014
lhumerus -27.9824 -0.950382 72.9249
lradius 28.2548
lwrist -1.40351
lhand -21.6923 -14.4373
lfingers 7.12502
lthumb 4.70589 15.4905
rfemur -34.797 1.85048 6.75756
rtibia 14.8503
rfoot -16.1498 -16.8357
rtoes -12.1723
lfemur -46.8555 -20.6784 -6.92069
ltibia 60.279
lfoot -34.0656 -2.66376
ltoes -37.7709
198
root 2.46679 17.4134 18.3856 -149.856 -9.87648 172.314
lowerback -18.3706 -5.23412 -11.8654
upperback 0.838549 -4.45452 -1.98897
thorax 12.0709 -2.87383 3.14621
lowerneck -2.19658 -2.04038 -1.39737
upperneck 20.5075 -5.33009 4.99728
head 6.76599 -2.88705 1.42498
rclavicle -7.95139e-015 -2.22639e-014
rhumerus -45.7547 -23.5505 -69.8114
rradius 32.3754
rwrist -4.06984
rhand -5.24963 -54.6308
rfingers 7.12502
rthumb 20.5535 -83.5627
lclavicle -7.95139e-015 -2.22639e-014
lhumerus -27.4281 -0.530372 73.0275
lradius 27.7606
lwrist -2.54513
lhand -21.5363 -14.4039
lfingers 7.12502
lthumb 4.85656 15.5204
rfemur -34.9532 1.84513 6.67217
rtibia 15.0658
rfoot -16.1883 -16.6469
rtoes -12.3907
lfemur -46.7901 -20.7331 -7.01697
ltibia 60.3201
lfoot -33.6306 -2.51253
ltoes -38.7785
199
root 2.50878 17.4193 18.3635 -149.962 -9.61993 172.22
lowerback -17.9241 -5.19421 -11.8104
upperback 0.832965 -4.47793 -1.89739
thorax 11.8157 -2.87234 3.24521
lowerneck -2.24474 -1.97607 -1.57169
upperneck 20.6853 -5.25341 4.96127
head 6.83165 -2.86958 1.44537
rclavicle -1.98785e-015 -2.46493e-014
rhumerus -45.6977 -23.3792 -69.7033
rradius 32.6024
rwrist -4.54214
rhand -5.56918 -54.4662
rfingers 7.12502
rthumb 20.2465 -83.431
lclavicle -1.98785e-015 -2.46493e-014
lhumerus -27.4582 -0.123096 73.2046
lradius 27.3599
lwrist -3.7676
lhand -21.7494 -14.4301
lfingers 7.12502
lthumb 4.65075 15.4988
rfemur -34.9012 2.03058 6.64971
rtibia 15.1122
rfoot -16.371 -16.5146
rtoes -11.2857
lfemur -46.5562 -20.8049 -7.00621
ltibia 60.2672
lfoot -33.1056 -2.28466
ltoes -39.5372
200
root 2.54763 17.4242 18.342 -149.957 -9.38645 172.176
lowerback -17.5393 -5.1534 -11.4868
upperback 0.676247 -4.56268 -1.91585
thorax 11.3965 -2.87502 3.05963
lowerneck -2.23222 -1.84941 -1.68528
upperneck 21.1428 -5.18543 4.98451
head 6.97799 -2.86543 1.47191
rclavicle 5.00937e-014 -2.54444e-014
rhumerus -45.8518 -23.2 -69.6538
rradius 32.7104
rwrist -4.85122
rhand -5.6907 -54.34
rfingers 7.12502
rthumb 20.1297 -83.3171
lclavicle 5.00937e-014 -2.54444e-014
lhumerus -27.7757 0.238299 73.117
lradius 27.0372
lwrist -4.8613
lhand -21.8138 -14.8369
lfingers 7.12502
lthumb 4.58859 15.0934
rfemur -34.9164 2.21039 6.66722
rtibia 15.0767
rfoot -16.5519 -16.3255
rtoes -9.47058
lfemur -46.5584 -20.6953 -6.96074
ltibia 60.4144
lfoot -32.6896 -2.08252
ltoes -39.8877
201
root 2.58158 17.43 18.3227 -149.825 -9.06641 172.059
lowerback -17.643 -5.12735 -11.2851
upperback 0.79162 -4.53875 -1.92902
thorax 11.5668 -2.85775 2.92703
lowerneck -2.66719 -1.84961 -1.68739
upperneck 21.4366 -5.18412 4.86139
head 7.14765 -2.86285 1.42285
rclavicle -2.98177e-014 -3.33958e-014
rhumerus -45.5247 -23.1982 -69.7913
rradius 32.8256
rwrist -4.92335
rhand -5.75829 -54.4238
rfingers 7.12502
rthumb 20.0647 -83.4077
lclavicle -2.98177e-014 -3.33958e-014
lhumerus -27.5802 0.648198 73.1171
lradius 26.7685
lwrist -5.77932
lhand -21.7985 -15.4645
lfingers 7.12502
lthumb 4.60337 14.4655
rfemur -35.1389 2.33864 6.59329
rtibia 15.1904
rfoot -16.5152 -16.2021
rtoes -9.37905
lfemur -46.7393 -20.4272 -7.08049
ltibia 60.7663
lfoot -32.5722 -1.92175
ltoes -40.7977
202
root 2.61614 17.4358 18.2992 -149.841 -8.69769 171.895
lowerback -17.5967 -5.10438 -11.1775
upperback 0.868068 -4.52616 -1.95484
thorax 11.6149 -2.84731 2.84178
lowerneck -2.65485 -1.73894 -1.70627
upperneck 21.4302 -4.99825 4.73039
head 7.13327 -2.78542 1.39735
rclavicle 9.54166e-015 -9.14409e-014
rhumerus -45.4432 -22.915 -69.9806
rradius 33.1432
rwrist -5.08276
rhand -5.92457 -54.7581
rfingers 7.12502
rthumb 19.9049 -83.7587
lclavicle 9.54166e-015 -9.14409e-014
lhumerus -27.6318 0.764921 73.1679
lradius 26.68
lwrist -6.20967
lhand -21.8142 -15.672
lfingers 7.12502
lthumb 4.58819 14.2583
rfemur -35.2263 2.53396 6.47616
rtibia 15.3631
rfoot -16.4469 -16.0935
rtoes -9.76189
lfemur -46.6524 -20.2365 -7.34445
ltibia 61.0175
lfoot -32.3777 -1.6236
ltoes -41.6654
